<mxfile host="65bd71144e">
    <diagram id="LM-wuiSoMR6fEPRwXzsu" name="Page-1">
        <mxGraphModel dx="2693" dy="2112" grid="1" gridSize="10" guides="1" tooltips="1" connect="1" arrows="1" fold="1" page="1" pageScale="1" pageWidth="850" pageHeight="1100" math="0" shadow="0">
            <root>
                <mxCell id="0"/>
                <mxCell id="1" parent="0"/>
                <mxCell id="35" style="html=1;exitX=0.5;exitY=1;exitDx=0;exitDy=0;entryX=0.5;entryY=0;entryDx=0;entryDy=0;fontSize=20;endArrow=open;endFill=0;endSize=16;elbow=vertical;" edge="1" parent="1" source="2" target="19">
                    <mxGeometry relative="1" as="geometry"/>
                </mxCell>
                <mxCell id="2" value="0" style="rounded=0;whiteSpace=wrap;html=1;fontSize=20;fillColor=#1ba1e2;fontColor=#ffffff;strokeColor=#000000;" vertex="1" parent="1">
                    <mxGeometry x="-20" y="10" width="40" height="100" as="geometry"/>
                </mxCell>
                <mxCell id="36" style="html=1;exitX=0.5;exitY=1;exitDx=0;exitDy=0;entryX=0.5;entryY=0;entryDx=0;entryDy=0;fontSize=20;endArrow=open;endFill=0;endSize=16;elbow=vertical;" edge="1" parent="1" source="3" target="22">
                    <mxGeometry relative="1" as="geometry"/>
                </mxCell>
                <mxCell id="3" value="1" style="rounded=0;whiteSpace=wrap;html=1;fontSize=20;fillColor=#1ba1e2;fontColor=#ffffff;strokeColor=#000000;" vertex="1" parent="1">
                    <mxGeometry x="20" y="10" width="40" height="100" as="geometry"/>
                </mxCell>
                <mxCell id="37" style="html=1;exitX=0.5;exitY=1;exitDx=0;exitDy=0;entryX=0.5;entryY=0;entryDx=0;entryDy=0;fontSize=20;endArrow=open;endFill=0;endSize=16;elbow=vertical;" edge="1" parent="1" source="4" target="20">
                    <mxGeometry relative="1" as="geometry"/>
                </mxCell>
                <mxCell id="4" value="2" style="rounded=0;whiteSpace=wrap;html=1;fontSize=20;fillColor=#1ba1e2;fontColor=#ffffff;strokeColor=#000000;" vertex="1" parent="1">
                    <mxGeometry x="60" y="10" width="40" height="100" as="geometry"/>
                </mxCell>
                <mxCell id="39" style="html=1;exitX=0.5;exitY=1;exitDx=0;exitDy=0;entryX=0.5;entryY=0;entryDx=0;entryDy=0;fontSize=20;endArrow=open;endFill=0;endSize=16;elbow=vertical;" edge="1" parent="1" source="5" target="24">
                    <mxGeometry relative="1" as="geometry"/>
                </mxCell>
                <mxCell id="5" value="3" style="rounded=0;whiteSpace=wrap;html=1;fontSize=20;fillColor=#1ba1e2;fontColor=#ffffff;strokeColor=#000000;" vertex="1" parent="1">
                    <mxGeometry x="100" y="10" width="40" height="100" as="geometry"/>
                </mxCell>
                <mxCell id="6" value="4" style="rounded=0;whiteSpace=wrap;html=1;fontSize=20;strokeColor=#000000;" vertex="1" parent="1">
                    <mxGeometry x="140" y="10" width="40" height="100" as="geometry"/>
                </mxCell>
                <mxCell id="7" value="5" style="rounded=0;whiteSpace=wrap;html=1;fontSize=20;strokeColor=#000000;" vertex="1" parent="1">
                    <mxGeometry x="180" y="10" width="40" height="100" as="geometry"/>
                </mxCell>
                <mxCell id="8" value="6" style="rounded=0;whiteSpace=wrap;html=1;fontSize=20;strokeColor=#000000;" vertex="1" parent="1">
                    <mxGeometry x="220" y="10" width="40" height="100" as="geometry"/>
                </mxCell>
                <mxCell id="9" value="7" style="rounded=0;whiteSpace=wrap;html=1;fontSize=20;strokeColor=#000000;" vertex="1" parent="1">
                    <mxGeometry x="260" y="10" width="40" height="100" as="geometry"/>
                </mxCell>
                <mxCell id="86" style="html=1;exitX=0.5;exitY=1;exitDx=0;exitDy=0;entryX=0.5;entryY=0;entryDx=0;entryDy=0;fontSize=20;endArrow=open;endFill=0;endSize=16;elbow=vertical;" edge="1" parent="1" source="11" target="61">
                    <mxGeometry relative="1" as="geometry"/>
                </mxCell>
                <mxCell id="11" value="0" style="rounded=0;whiteSpace=wrap;html=1;fontSize=20;fillColor=#1ba1e2;fontColor=#ffffff;strokeColor=#000000;" vertex="1" parent="1">
                    <mxGeometry x="580" y="10" width="40" height="100" as="geometry"/>
                </mxCell>
                <mxCell id="87" style="html=1;exitX=0.5;exitY=1;exitDx=0;exitDy=0;entryX=0.5;entryY=0;entryDx=0;entryDy=0;fontSize=20;endArrow=open;endFill=0;endSize=16;elbow=vertical;" edge="1" parent="1" source="12" target="65">
                    <mxGeometry relative="1" as="geometry"/>
                </mxCell>
                <mxCell id="12" value="1" style="rounded=0;whiteSpace=wrap;html=1;fontSize=20;fillColor=#1ba1e2;fontColor=#ffffff;strokeColor=#000000;" vertex="1" parent="1">
                    <mxGeometry x="620" y="10" width="40" height="100" as="geometry"/>
                </mxCell>
                <mxCell id="41" style="html=1;exitX=0.5;exitY=1;exitDx=0;exitDy=0;entryX=0.5;entryY=0;entryDx=0;entryDy=0;fontSize=20;endArrow=open;endFill=0;endSize=16;elbow=vertical;" edge="1" parent="1" source="13" target="63">
                    <mxGeometry relative="1" as="geometry">
                        <mxPoint x="590" y="220" as="targetPoint"/>
                    </mxGeometry>
                </mxCell>
                <mxCell id="13" value="2" style="rounded=0;whiteSpace=wrap;html=1;fontSize=20;fillColor=#1ba1e2;fontColor=#ffffff;strokeColor=#000000;" vertex="1" parent="1">
                    <mxGeometry x="660" y="10" width="40" height="100" as="geometry"/>
                </mxCell>
                <mxCell id="42" style="html=1;exitX=0.5;exitY=1;exitDx=0;exitDy=0;entryX=0.5;entryY=0;entryDx=0;entryDy=0;fontSize=20;endArrow=open;endFill=0;endSize=16;elbow=vertical;" edge="1" parent="1" source="14" target="62">
                    <mxGeometry relative="1" as="geometry">
                        <mxPoint x="550" y="220" as="targetPoint"/>
                    </mxGeometry>
                </mxCell>
                <mxCell id="14" value="3" style="rounded=0;whiteSpace=wrap;html=1;fontSize=20;fillColor=#1ba1e2;fontColor=#ffffff;strokeColor=#000000;" vertex="1" parent="1">
                    <mxGeometry x="700" y="10" width="40" height="100" as="geometry"/>
                </mxCell>
                <mxCell id="43" style="html=1;exitX=0.5;exitY=1;exitDx=0;exitDy=0;entryX=0.5;entryY=0;entryDx=0;entryDy=0;fontSize=20;endArrow=open;endFill=0;endSize=16;elbow=vertical;" edge="1" parent="1" source="15" target="66">
                    <mxGeometry relative="1" as="geometry">
                        <mxPoint x="710" y="220" as="targetPoint"/>
                    </mxGeometry>
                </mxCell>
                <mxCell id="15" value="4" style="rounded=0;whiteSpace=wrap;html=1;fontSize=20;fillColor=#1ba1e2;fontColor=#ffffff;strokeColor=#000000;" vertex="1" parent="1">
                    <mxGeometry x="740" y="10" width="40" height="100" as="geometry"/>
                </mxCell>
                <mxCell id="16" value="5" style="rounded=0;whiteSpace=wrap;html=1;fontSize=20;strokeColor=#000000;" vertex="1" parent="1">
                    <mxGeometry x="780" y="10" width="40" height="100" as="geometry"/>
                </mxCell>
                <mxCell id="17" value="6" style="rounded=0;whiteSpace=wrap;html=1;fontSize=20;strokeColor=#000000;" vertex="1" parent="1">
                    <mxGeometry x="820" y="10" width="40" height="100" as="geometry"/>
                </mxCell>
                <mxCell id="18" value="&lt;font style=&quot;font-size: 30px&quot;&gt;&lt;b&gt;...&lt;/b&gt;&lt;/font&gt;" style="text;html=1;strokeColor=none;fillColor=none;align=center;verticalAlign=middle;whiteSpace=wrap;rounded=0;" vertex="1" parent="1">
                    <mxGeometry x="860" y="60" width="40" height="20" as="geometry"/>
                </mxCell>
                <mxCell id="76" style="edgeStyle=none;html=1;exitX=0.5;exitY=1;exitDx=0;exitDy=0;entryX=0.5;entryY=0;entryDx=0;entryDy=0;fontSize=20;endSize=16;endArrow=open;endFill=0;" edge="1" parent="1" source="19" target="47">
                    <mxGeometry relative="1" as="geometry"/>
                </mxCell>
                <mxCell id="19" value="0" style="rounded=0;whiteSpace=wrap;html=1;fontSize=20;fillColor=#a20025;fontColor=#ffffff;strokeColor=#000000;" vertex="1" parent="1">
                    <mxGeometry x="70" y="220" width="40" height="100" as="geometry"/>
                </mxCell>
                <mxCell id="78" style="edgeStyle=none;html=1;exitX=0.5;exitY=1;exitDx=0;exitDy=0;entryX=0.5;entryY=0;entryDx=0;entryDy=0;fontSize=20;endSize=16;endArrow=open;endFill=0;" edge="1" parent="1" source="20" target="44">
                    <mxGeometry relative="1" as="geometry"/>
                </mxCell>
                <mxCell id="20" value="1" style="rounded=0;whiteSpace=wrap;html=1;fontSize=20;fillColor=#a20025;fontColor=#ffffff;strokeColor=#000000;" vertex="1" parent="1">
                    <mxGeometry x="110" y="220" width="40" height="100" as="geometry"/>
                </mxCell>
                <mxCell id="83" style="edgeStyle=none;html=1;exitX=0.5;exitY=1;exitDx=0;exitDy=0;entryX=0.5;entryY=0;entryDx=0;entryDy=0;fontSize=20;endSize=16;endArrow=open;endFill=0;" edge="1" parent="1" source="21" target="48">
                    <mxGeometry relative="1" as="geometry"/>
                </mxCell>
                <mxCell id="21" value="2" style="rounded=0;whiteSpace=wrap;html=1;fontSize=20;fillColor=#a20025;fontColor=#ffffff;strokeColor=#000000;" vertex="1" parent="1">
                    <mxGeometry x="150" y="220" width="40" height="100" as="geometry"/>
                </mxCell>
                <mxCell id="77" style="edgeStyle=none;html=1;exitX=0.5;exitY=1;exitDx=0;exitDy=0;entryX=0.5;entryY=0;entryDx=0;entryDy=0;fontSize=20;endSize=16;endArrow=open;endFill=0;" edge="1" parent="1" source="22" target="45">
                    <mxGeometry relative="1" as="geometry"/>
                </mxCell>
                <mxCell id="22" value="3" style="rounded=0;whiteSpace=wrap;html=1;fontSize=20;fillColor=#a20025;fontColor=#ffffff;strokeColor=#000000;" vertex="1" parent="1">
                    <mxGeometry x="190" y="220" width="40" height="100" as="geometry"/>
                </mxCell>
                <mxCell id="23" value="4" style="rounded=0;whiteSpace=wrap;html=1;fontSize=20;strokeColor=#000000;" vertex="1" parent="1">
                    <mxGeometry x="230" y="220" width="40" height="100" as="geometry"/>
                </mxCell>
                <mxCell id="79" style="edgeStyle=none;html=1;exitX=0.5;exitY=1;exitDx=0;exitDy=0;entryX=0.5;entryY=0;entryDx=0;entryDy=0;fontSize=20;endSize=16;endArrow=open;endFill=0;" edge="1" parent="1" source="24" target="50">
                    <mxGeometry relative="1" as="geometry"/>
                </mxCell>
                <mxCell id="24" value="5" style="rounded=0;whiteSpace=wrap;html=1;fontSize=20;fillColor=#a20025;fontColor=#ffffff;strokeColor=#000000;" vertex="1" parent="1">
                    <mxGeometry x="270" y="220" width="40" height="100" as="geometry"/>
                </mxCell>
                <mxCell id="84" style="edgeStyle=none;html=1;exitX=0.5;exitY=1;exitDx=0;exitDy=0;entryX=0.5;entryY=0;entryDx=0;entryDy=0;fontSize=20;endSize=16;endArrow=open;endFill=0;" edge="1" parent="1" source="25" target="49">
                    <mxGeometry relative="1" as="geometry"/>
                </mxCell>
                <mxCell id="25" value="6" style="rounded=0;whiteSpace=wrap;html=1;fontSize=20;fillColor=#a20025;fontColor=#ffffff;strokeColor=#000000;" vertex="1" parent="1">
                    <mxGeometry x="310" y="220" width="40" height="100" as="geometry"/>
                </mxCell>
                <mxCell id="85" style="edgeStyle=none;html=1;exitX=0.5;exitY=1;exitDx=0;exitDy=0;entryX=0.5;entryY=0;entryDx=0;entryDy=0;fontSize=20;endSize=16;endArrow=open;endFill=0;" edge="1" parent="1" source="26" target="55">
                    <mxGeometry relative="1" as="geometry"/>
                </mxCell>
                <mxCell id="26" value="7" style="rounded=0;whiteSpace=wrap;html=1;fontSize=20;fillColor=#a20025;fontColor=#ffffff;strokeColor=#000000;" vertex="1" parent="1">
                    <mxGeometry x="350" y="220" width="40" height="100" as="geometry"/>
                </mxCell>
                <mxCell id="44" value="0" style="rounded=0;whiteSpace=wrap;html=1;fontSize=20;fillColor=#6a00ff;fontColor=#ffffff;strokeColor=#000000;" vertex="1" parent="1">
                    <mxGeometry x="105" y="420" width="40" height="100" as="geometry"/>
                </mxCell>
                <mxCell id="45" value="1" style="rounded=0;whiteSpace=wrap;html=1;fontSize=20;fillColor=#6a00ff;fontColor=#ffffff;strokeColor=#000000;" vertex="1" parent="1">
                    <mxGeometry x="145" y="420" width="40" height="100" as="geometry"/>
                </mxCell>
                <mxCell id="46" value="2" style="rounded=0;whiteSpace=wrap;html=1;fontSize=20;strokeColor=#000000;" vertex="1" parent="1">
                    <mxGeometry x="185" y="420" width="40" height="100" as="geometry"/>
                </mxCell>
                <mxCell id="47" value="3" style="rounded=0;whiteSpace=wrap;html=1;fontSize=20;fillColor=#6a00ff;fontColor=#ffffff;strokeColor=#000000;" vertex="1" parent="1">
                    <mxGeometry x="225" y="420" width="40" height="100" as="geometry"/>
                </mxCell>
                <mxCell id="48" value="4" style="rounded=0;whiteSpace=wrap;html=1;fontSize=20;fillColor=#6a00ff;fontColor=#ffffff;strokeColor=#000000;" vertex="1" parent="1">
                    <mxGeometry x="265" y="420" width="40" height="100" as="geometry"/>
                </mxCell>
                <mxCell id="49" value="5" style="rounded=0;whiteSpace=wrap;html=1;fontSize=20;fillColor=#6a00ff;fontColor=#ffffff;strokeColor=#000000;" vertex="1" parent="1">
                    <mxGeometry x="305" y="420" width="40" height="100" as="geometry"/>
                </mxCell>
                <mxCell id="50" value="6" style="rounded=0;whiteSpace=wrap;html=1;fontSize=20;fillColor=#6a00ff;fontColor=#ffffff;strokeColor=#000000;" vertex="1" parent="1">
                    <mxGeometry x="345" y="420" width="40" height="100" as="geometry"/>
                </mxCell>
                <mxCell id="51" value="7" style="rounded=0;whiteSpace=wrap;html=1;fontSize=20;strokeColor=#000000;" vertex="1" parent="1">
                    <mxGeometry x="385" y="420" width="40" height="100" as="geometry"/>
                </mxCell>
                <mxCell id="53" value="9" style="rounded=0;whiteSpace=wrap;html=1;fontSize=20;fillColor=#6a00ff;fontColor=#ffffff;strokeColor=#000000;" vertex="1" parent="1">
                    <mxGeometry x="465" y="420" width="40" height="100" as="geometry"/>
                </mxCell>
                <mxCell id="54" value="10" style="rounded=0;whiteSpace=wrap;html=1;fontSize=20;fillColor=#6a00ff;fontColor=#ffffff;strokeColor=#000000;" vertex="1" parent="1">
                    <mxGeometry x="505" y="420" width="40" height="100" as="geometry"/>
                </mxCell>
                <mxCell id="55" value="11" style="rounded=0;whiteSpace=wrap;html=1;fontSize=20;fillColor=#6a00ff;fontColor=#ffffff;strokeColor=#000000;" vertex="1" parent="1">
                    <mxGeometry x="545" y="420" width="40" height="100" as="geometry"/>
                </mxCell>
                <mxCell id="56" value="12" style="rounded=0;whiteSpace=wrap;html=1;fontSize=20;strokeColor=#000000;" vertex="1" parent="1">
                    <mxGeometry x="585" y="420" width="40" height="100" as="geometry"/>
                </mxCell>
                <mxCell id="57" value="13" style="rounded=0;whiteSpace=wrap;html=1;fontSize=20;fillColor=#6a00ff;fontColor=#ffffff;strokeColor=#000000;" vertex="1" parent="1">
                    <mxGeometry x="625" y="420" width="40" height="100" as="geometry"/>
                </mxCell>
                <mxCell id="58" value="14" style="rounded=0;whiteSpace=wrap;html=1;fontSize=20;fillColor=#6a00ff;fontColor=#ffffff;strokeColor=#000000;" vertex="1" parent="1">
                    <mxGeometry x="665" y="420" width="40" height="100" as="geometry"/>
                </mxCell>
                <mxCell id="59" value="15" style="rounded=0;whiteSpace=wrap;html=1;fontSize=20;fillColor=#6a00ff;fontColor=#ffffff;strokeColor=#000000;" vertex="1" parent="1">
                    <mxGeometry x="705" y="420" width="40" height="100" as="geometry"/>
                </mxCell>
                <mxCell id="60" value="&lt;font style=&quot;font-size: 30px&quot;&gt;&lt;b&gt;...&lt;/b&gt;&lt;/font&gt;" style="text;html=1;strokeColor=none;fillColor=none;align=center;verticalAlign=middle;whiteSpace=wrap;rounded=0;" vertex="1" parent="1">
                    <mxGeometry x="300" y="50" width="40" height="20" as="geometry"/>
                </mxCell>
                <mxCell id="89" style="edgeStyle=none;html=1;exitX=0.5;exitY=1;exitDx=0;exitDy=0;entryX=0.5;entryY=0;entryDx=0;entryDy=0;fontSize=20;endSize=16;endArrow=open;endFill=0;" edge="1" parent="1" source="61" target="54">
                    <mxGeometry relative="1" as="geometry"/>
                </mxCell>
                <mxCell id="61" value="0" style="rounded=0;whiteSpace=wrap;html=1;fontSize=20;fillColor=#a20025;fontColor=#ffffff;strokeColor=#000000;" vertex="1" parent="1">
                    <mxGeometry x="580" y="220" width="40" height="100" as="geometry"/>
                </mxCell>
                <mxCell id="80" style="edgeStyle=none;html=1;exitX=0.5;exitY=1;exitDx=0;exitDy=0;entryX=0.5;entryY=0;entryDx=0;entryDy=0;fontSize=20;endSize=16;endArrow=open;endFill=0;" edge="1" parent="1" source="62" target="53">
                    <mxGeometry relative="1" as="geometry"/>
                </mxCell>
                <mxCell id="62" value="1" style="rounded=0;whiteSpace=wrap;html=1;fontSize=20;fillColor=#a20025;fontColor=#ffffff;strokeColor=#000000;" vertex="1" parent="1">
                    <mxGeometry x="620" y="220" width="40" height="100" as="geometry"/>
                </mxCell>
                <mxCell id="81" style="edgeStyle=none;html=1;exitX=0.5;exitY=1;exitDx=0;exitDy=0;entryX=0.5;entryY=0;entryDx=0;entryDy=0;fontSize=20;endSize=16;endArrow=open;endFill=0;" edge="1" parent="1" source="63" target="57">
                    <mxGeometry relative="1" as="geometry"/>
                </mxCell>
                <mxCell id="63" value="2" style="rounded=0;whiteSpace=wrap;html=1;fontSize=20;fillColor=#a20025;fontColor=#ffffff;strokeColor=#000000;" vertex="1" parent="1">
                    <mxGeometry x="660" y="220" width="40" height="100" as="geometry"/>
                </mxCell>
                <mxCell id="64" value="3" style="rounded=0;whiteSpace=wrap;html=1;fontSize=20;strokeColor=#000000;" vertex="1" parent="1">
                    <mxGeometry x="700" y="220" width="40" height="100" as="geometry"/>
                </mxCell>
                <mxCell id="88" style="edgeStyle=none;html=1;exitX=0.5;exitY=1;exitDx=0;exitDy=0;entryX=0.5;entryY=0;entryDx=0;entryDy=0;fontSize=20;endSize=16;endArrow=open;endFill=0;" edge="1" parent="1" source="65" target="58">
                    <mxGeometry relative="1" as="geometry"/>
                </mxCell>
                <mxCell id="65" value="4" style="rounded=0;whiteSpace=wrap;html=1;fontSize=20;fillColor=#a20025;fontColor=#ffffff;strokeColor=#000000;" vertex="1" parent="1">
                    <mxGeometry x="740" y="220" width="40" height="100" as="geometry"/>
                </mxCell>
                <mxCell id="82" style="edgeStyle=none;html=1;exitX=0.5;exitY=1;exitDx=0;exitDy=0;entryX=0.5;entryY=0;entryDx=0;entryDy=0;fontSize=20;endSize=16;endArrow=open;endFill=0;" edge="1" parent="1" source="66" target="59">
                    <mxGeometry relative="1" as="geometry"/>
                </mxCell>
                <mxCell id="66" value="5" style="rounded=0;whiteSpace=wrap;html=1;fontSize=20;fillColor=#a20025;fontColor=#ffffff;strokeColor=#000000;" vertex="1" parent="1">
                    <mxGeometry x="780" y="220" width="40" height="100" as="geometry"/>
                </mxCell>
                <mxCell id="67" value="6" style="rounded=0;whiteSpace=wrap;html=1;fontSize=20;strokeColor=#000000;" vertex="1" parent="1">
                    <mxGeometry x="820" y="220" width="40" height="100" as="geometry"/>
                </mxCell>
                <mxCell id="68" value="8" style="rounded=0;whiteSpace=wrap;html=1;fontSize=20;strokeColor=#000000;" vertex="1" parent="1">
                    <mxGeometry x="425" y="420" width="40" height="100" as="geometry"/>
                </mxCell>
                <mxCell id="73" style="html=1;exitX=0.5;exitY=1;exitDx=0;exitDy=0;entryX=0.5;entryY=0;entryDx=0;entryDy=0;fontSize=20;endArrow=open;endFill=0;endSize=16;elbow=vertical;" edge="1" parent="1" source="69" target="21">
                    <mxGeometry relative="1" as="geometry"/>
                </mxCell>
                <mxCell id="69" value="0" style="rounded=0;whiteSpace=wrap;html=1;fontSize=20;fillColor=#1ba1e2;fontColor=#ffffff;strokeColor=#000000;" vertex="1" parent="1">
                    <mxGeometry x="360" y="10" width="40" height="100" as="geometry"/>
                </mxCell>
                <mxCell id="74" style="html=1;exitX=0.5;exitY=1;exitDx=0;exitDy=0;entryX=0.5;entryY=0;entryDx=0;entryDy=0;fontSize=20;endArrow=open;endFill=0;endSize=16;elbow=vertical;" edge="1" parent="1" source="70" target="25">
                    <mxGeometry relative="1" as="geometry"/>
                </mxCell>
                <mxCell id="70" value="1" style="rounded=0;whiteSpace=wrap;html=1;fontSize=20;fillColor=#1ba1e2;fontColor=#ffffff;strokeColor=#000000;" vertex="1" parent="1">
                    <mxGeometry x="400" y="10" width="40" height="100" as="geometry"/>
                </mxCell>
                <mxCell id="75" style="html=1;exitX=0.5;exitY=1;exitDx=0;exitDy=0;entryX=0.5;entryY=0;entryDx=0;entryDy=0;fontSize=20;endArrow=open;endFill=0;endSize=16;elbow=vertical;" edge="1" parent="1" source="71" target="26">
                    <mxGeometry relative="1" as="geometry"/>
                </mxCell>
                <mxCell id="71" value="2" style="rounded=0;whiteSpace=wrap;html=1;fontSize=20;fillColor=#1ba1e2;fontColor=#ffffff;strokeColor=#000000;" vertex="1" parent="1">
                    <mxGeometry x="440" y="10" width="40" height="100" as="geometry"/>
                </mxCell>
                <mxCell id="72" value="&lt;font style=&quot;font-size: 30px&quot;&gt;&lt;b&gt;...&lt;/b&gt;&lt;/font&gt;" style="text;html=1;strokeColor=none;fillColor=none;align=center;verticalAlign=middle;whiteSpace=wrap;rounded=0;" vertex="1" parent="1">
                    <mxGeometry x="480" y="50" width="40" height="20" as="geometry"/>
                </mxCell>
                <mxCell id="91" value="" style="endArrow=none;dashed=1;html=1;strokeWidth=2;fontSize=20;fillColor=#d80073;strokeColor=#A50040;" edge="1" parent="1">
                    <mxGeometry width="50" height="50" relative="1" as="geometry">
                        <mxPoint x="540" y="360" as="sourcePoint"/>
                        <mxPoint x="540" y="-70" as="targetPoint"/>
                    </mxGeometry>
                </mxCell>
                <mxCell id="92" value="" style="shape=curlyBracket;whiteSpace=wrap;html=1;rounded=1;fontSize=20;strokeColor=#000000;rotation=90;" vertex="1" parent="1">
                    <mxGeometry x="145" y="-185" width="20" height="350" as="geometry"/>
                </mxCell>
                <mxCell id="93" value="" style="shape=curlyBracket;whiteSpace=wrap;html=1;rounded=1;fontSize=20;strokeColor=#000000;rotation=90;" vertex="1" parent="1">
                    <mxGeometry x="430" y="-85" width="20" height="150" as="geometry"/>
                </mxCell>
                <mxCell id="94" value="Process A" style="text;html=1;strokeColor=none;fillColor=none;align=center;verticalAlign=middle;whiteSpace=wrap;rounded=0;fontSize=20;" vertex="1" parent="1">
                    <mxGeometry x="27.5" y="-40" width="255" height="20" as="geometry"/>
                </mxCell>
                <mxCell id="95" value="Process B" style="text;html=1;strokeColor=none;fillColor=none;align=center;verticalAlign=middle;whiteSpace=wrap;rounded=0;fontSize=20;" vertex="1" parent="1">
                    <mxGeometry x="305" y="-40" width="255" height="20" as="geometry"/>
                </mxCell>
                <mxCell id="96" value="Process A" style="text;html=1;strokeColor=none;fillColor=none;align=center;verticalAlign=middle;whiteSpace=wrap;rounded=0;fontSize=20;" vertex="1" parent="1">
                    <mxGeometry x="592.5" y="-40" width="255" height="20" as="geometry"/>
                </mxCell>
                <mxCell id="97" value="" style="shape=curlyBracket;whiteSpace=wrap;html=1;rounded=1;fontSize=20;strokeColor=#000000;rotation=90;" vertex="1" parent="1">
                    <mxGeometry x="727.5" y="-172.5" width="20" height="325" as="geometry"/>
                </mxCell>
                <mxCell id="98" value="Guest OS 0" style="text;html=1;strokeColor=none;fillColor=none;align=center;verticalAlign=middle;whiteSpace=wrap;rounded=0;fontSize=28;" vertex="1" parent="1">
                    <mxGeometry x="160" y="-85" width="217" height="20" as="geometry"/>
                </mxCell>
                <mxCell id="100" value="Guest OS 1" style="text;html=1;strokeColor=none;fillColor=none;align=center;verticalAlign=middle;whiteSpace=wrap;rounded=0;fontSize=28;" vertex="1" parent="1">
                    <mxGeometry x="611.5" y="-90" width="217" height="20" as="geometry"/>
                </mxCell>
                <mxCell id="101" value="Guest Virtual Memory" style="text;html=1;strokeColor=none;fillColor=none;align=center;verticalAlign=middle;whiteSpace=wrap;rounded=0;fontSize=28;" vertex="1" parent="1">
                    <mxGeometry x="-250" y="30" width="210" height="60" as="geometry"/>
                </mxCell>
                <mxCell id="102" value="Guest Physical&lt;br&gt;Memory" style="text;html=1;strokeColor=none;fillColor=none;align=center;verticalAlign=middle;whiteSpace=wrap;rounded=0;fontSize=28;" vertex="1" parent="1">
                    <mxGeometry x="-210" y="250" width="240" height="60" as="geometry"/>
                </mxCell>
                <mxCell id="103" value="Host Physical Memory" style="text;html=1;strokeColor=none;fillColor=none;align=center;verticalAlign=middle;whiteSpace=wrap;rounded=0;fontSize=28;" vertex="1" parent="1">
                    <mxGeometry x="-160" y="440" width="230" height="60" as="geometry"/>
                </mxCell>
                <mxCell id="104" value="Virtual Address Space" style="text;html=1;strokeColor=none;fillColor=none;align=center;verticalAlign=middle;whiteSpace=wrap;rounded=0;fontSize=28;" vertex="1" parent="1">
                    <mxGeometry x="-470" y="20" width="220" height="80" as="geometry"/>
                </mxCell>
                <mxCell id="105" value="Physical Address Space" style="text;html=1;strokeColor=none;fillColor=none;align=center;verticalAlign=middle;whiteSpace=wrap;rounded=0;fontSize=28;" vertex="1" parent="1">
                    <mxGeometry x="-430" y="240" width="220" height="80" as="geometry"/>
                </mxCell>
                <mxCell id="106" value="Machine Address Space" style="text;html=1;strokeColor=none;fillColor=none;align=center;verticalAlign=middle;whiteSpace=wrap;rounded=0;fontSize=28;" vertex="1" parent="1">
                    <mxGeometry x="-380" y="430" width="220" height="80" as="geometry"/>
                </mxCell>
                <mxCell id="109" value="Physical Memory Map" style="rounded=1;whiteSpace=wrap;html=1;fontSize=28;fontColor=#ffffff;gradientDirection=north;gradientColor=#A20025;fillColor=#6A00FF;strokeColor=#000000;" vertex="1" parent="1">
                    <mxGeometry x="-320" y="340" width="310" height="70" as="geometry"/>
                </mxCell>
                <mxCell id="110" value="Guest Page Tables" style="rounded=1;whiteSpace=wrap;html=1;fontSize=28;fontColor=#ffffff;gradientDirection=south;gradientColor=#A20025;fillColor=#1BA1E2;strokeColor=#000000;" vertex="1" parent="1">
                    <mxGeometry x="-320" y="140" width="310" height="70" as="geometry"/>
                </mxCell>
                <mxCell id="112" value="Guest OSes isolated" style="text;html=1;strokeColor=none;fillColor=none;align=center;verticalAlign=middle;whiteSpace=wrap;rounded=0;fontSize=28;" vertex="1" parent="1">
                    <mxGeometry x="450" y="-150" width="175" height="80" as="geometry"/>
                </mxCell>
                <mxCell id="113" value="16" style="rounded=0;whiteSpace=wrap;html=1;fontSize=20;strokeColor=#000000;" vertex="1" parent="1">
                    <mxGeometry x="745" y="420" width="40" height="100" as="geometry"/>
                </mxCell>
                <mxCell id="114" value="17" style="rounded=0;whiteSpace=wrap;html=1;fontSize=20;strokeColor=#000000;" vertex="1" parent="1">
                    <mxGeometry x="785" y="420" width="40" height="100" as="geometry"/>
                </mxCell>
                <mxCell id="115" value="18" style="rounded=0;whiteSpace=wrap;html=1;fontSize=20;strokeColor=#000000;" vertex="1" parent="1">
                    <mxGeometry x="825" y="420" width="40" height="100" as="geometry"/>
                </mxCell>
                <mxCell id="116" value="19" style="rounded=0;whiteSpace=wrap;html=1;fontSize=20;strokeColor=#000000;" vertex="1" parent="1">
                    <mxGeometry x="865" y="420" width="40" height="100" as="geometry"/>
                </mxCell>
                <mxCell id="117" value="20" style="rounded=0;whiteSpace=wrap;html=1;fontSize=20;strokeColor=#000000;" vertex="1" parent="1">
                    <mxGeometry x="905" y="420" width="40" height="100" as="geometry"/>
                </mxCell>
                <mxCell id="118" value="21" style="rounded=0;whiteSpace=wrap;html=1;fontSize=20;strokeColor=#000000;" vertex="1" parent="1">
                    <mxGeometry x="945" y="420" width="40" height="100" as="geometry"/>
                </mxCell>
                <mxCell id="119" value="22" style="rounded=0;whiteSpace=wrap;html=1;fontSize=20;strokeColor=#000000;" vertex="1" parent="1">
                    <mxGeometry x="985" y="420" width="40" height="100" as="geometry"/>
                </mxCell>
                <mxCell id="120" value="23" style="rounded=0;whiteSpace=wrap;html=1;fontSize=20;strokeColor=#000000;" vertex="1" parent="1">
                    <mxGeometry x="1025" y="420" width="40" height="100" as="geometry"/>
                </mxCell>
                <mxCell id="121" value="24" style="rounded=0;whiteSpace=wrap;html=1;fontSize=20;fillColor=#6a00ff;fontColor=#ffffff;strokeColor=#000000;" vertex="1" parent="1">
                    <mxGeometry x="1065" y="420" width="40" height="100" as="geometry"/>
                </mxCell>
                <mxCell id="122" value="25" style="rounded=0;whiteSpace=wrap;html=1;fontSize=20;strokeColor=#000000;" vertex="1" parent="1">
                    <mxGeometry x="1105" y="420" width="40" height="100" as="geometry"/>
                </mxCell>
                <mxCell id="123" value="26" style="rounded=0;whiteSpace=wrap;html=1;fontSize=20;strokeColor=#000000;" vertex="1" parent="1">
                    <mxGeometry x="1145" y="420" width="40" height="100" as="geometry"/>
                </mxCell>
                <mxCell id="124" value="27" style="rounded=0;whiteSpace=wrap;html=1;fontSize=20;fillColor=#6a00ff;fontColor=#ffffff;strokeColor=#000000;" vertex="1" parent="1">
                    <mxGeometry x="1185" y="420" width="40" height="100" as="geometry"/>
                </mxCell>
                <mxCell id="125" value="28" style="rounded=0;whiteSpace=wrap;html=1;fontSize=20;fillColor=#6a00ff;fontColor=#ffffff;strokeColor=#000000;" vertex="1" parent="1">
                    <mxGeometry x="1225" y="420" width="40" height="100" as="geometry"/>
                </mxCell>
                <mxCell id="126" value="29" style="rounded=0;whiteSpace=wrap;html=1;fontSize=20;strokeColor=#000000;" vertex="1" parent="1">
                    <mxGeometry x="1265" y="420" width="40" height="100" as="geometry"/>
                </mxCell>
                <mxCell id="127" value="" style="endArrow=none;dashed=1;html=1;strokeWidth=2;fontSize=20;fillColor=#d80073;strokeColor=#A50040;" edge="1" parent="1">
                    <mxGeometry width="50" height="50" relative="1" as="geometry">
                        <mxPoint x="930" y="360" as="sourcePoint"/>
                        <mxPoint x="930" y="-80" as="targetPoint"/>
                    </mxGeometry>
                </mxCell>
                <mxCell id="128" value="Guest OS 2" style="text;html=1;strokeColor=none;fillColor=none;align=center;verticalAlign=middle;whiteSpace=wrap;rounded=0;fontSize=28;" vertex="1" parent="1">
                    <mxGeometry x="1008" y="-90" width="217" height="20" as="geometry"/>
                </mxCell>
                <mxCell id="159" style="edgeStyle=none;html=1;exitX=0.5;exitY=1;exitDx=0;exitDy=0;entryX=0.5;entryY=0;entryDx=0;entryDy=0;fontSize=28;endArrow=open;endFill=0;endSize=16;strokeColor=#000000;" edge="1" parent="1" source="130" target="147">
                    <mxGeometry relative="1" as="geometry"/>
                </mxCell>
                <mxCell id="165" style="edgeStyle=none;html=1;exitX=0.5;exitY=1;exitDx=0;exitDy=0;entryX=0.5;entryY=0;entryDx=0;entryDy=0;fontSize=28;endArrow=open;endFill=0;endSize=16;strokeColor=#000000;" edge="1" parent="1" source="130" target="121">
                    <mxGeometry relative="1" as="geometry">
                        <Array as="points">
                            <mxPoint x="1360" y="210"/>
                            <mxPoint x="1360" y="340"/>
                        </Array>
                    </mxGeometry>
                </mxCell>
                <mxCell id="130" value="0" style="rounded=0;whiteSpace=wrap;html=1;fontSize=20;fillColor=#1ba1e2;fontColor=#ffffff;strokeColor=#000000;" vertex="1" parent="1">
                    <mxGeometry x="1125" y="10" width="40" height="100" as="geometry"/>
                </mxCell>
                <mxCell id="160" style="edgeStyle=none;html=1;exitX=0.5;exitY=1;exitDx=0;exitDy=0;entryX=0.5;entryY=0;entryDx=0;entryDy=0;fontSize=28;endArrow=open;endFill=0;endSize=16;strokeColor=#000000;" edge="1" parent="1" source="131" target="149">
                    <mxGeometry relative="1" as="geometry"/>
                </mxCell>
                <mxCell id="166" style="edgeStyle=none;html=1;exitX=0.5;exitY=1;exitDx=0;exitDy=0;entryX=0.5;entryY=0;entryDx=0;entryDy=0;fontSize=28;endArrow=open;endFill=0;endSize=16;strokeColor=#000000;" edge="1" parent="1" source="131" target="124">
                    <mxGeometry relative="1" as="geometry">
                        <Array as="points">
                            <mxPoint x="1400" y="210"/>
                            <mxPoint x="1400" y="340"/>
                        </Array>
                    </mxGeometry>
                </mxCell>
                <mxCell id="131" value="1" style="rounded=0;whiteSpace=wrap;html=1;fontSize=20;fillColor=#1ba1e2;fontColor=#ffffff;strokeColor=#000000;" vertex="1" parent="1">
                    <mxGeometry x="1165" y="10" width="40" height="100" as="geometry"/>
                </mxCell>
                <mxCell id="132" value="2" style="rounded=0;whiteSpace=wrap;html=1;fontSize=20;strokeColor=#000000;" vertex="1" parent="1">
                    <mxGeometry x="1205" y="10" width="40" height="100" as="geometry"/>
                </mxCell>
                <mxCell id="161" style="edgeStyle=none;html=1;exitX=0.5;exitY=1;exitDx=0;exitDy=0;entryX=0.5;entryY=0;entryDx=0;entryDy=0;fontSize=28;endArrow=open;endFill=0;endSize=16;strokeColor=#000000;" edge="1" parent="1" source="133" target="150">
                    <mxGeometry relative="1" as="geometry"/>
                </mxCell>
                <mxCell id="167" style="edgeStyle=none;html=1;exitX=0.5;exitY=1;exitDx=0;exitDy=0;entryX=0.5;entryY=0;entryDx=0;entryDy=0;fontSize=28;endArrow=open;endFill=0;endSize=16;strokeColor=#000000;" edge="1" parent="1" source="133" target="125">
                    <mxGeometry relative="1" as="geometry">
                        <Array as="points">
                            <mxPoint x="1440" y="210"/>
                            <mxPoint x="1440" y="340"/>
                        </Array>
                    </mxGeometry>
                </mxCell>
                <mxCell id="133" value="3" style="rounded=0;whiteSpace=wrap;html=1;fontSize=20;fillColor=#1ba1e2;fontColor=#ffffff;strokeColor=#000000;" vertex="1" parent="1">
                    <mxGeometry x="1245" y="10" width="40" height="100" as="geometry"/>
                </mxCell>
                <mxCell id="134" value="4" style="rounded=0;whiteSpace=wrap;html=1;fontSize=20;strokeColor=#000000;" vertex="1" parent="1">
                    <mxGeometry x="1285" y="10" width="40" height="100" as="geometry"/>
                </mxCell>
                <mxCell id="135" value="5" style="rounded=0;whiteSpace=wrap;html=1;fontSize=20;strokeColor=#000000;" vertex="1" parent="1">
                    <mxGeometry x="1325" y="10" width="40" height="100" as="geometry"/>
                </mxCell>
                <mxCell id="136" value="6" style="rounded=0;whiteSpace=wrap;html=1;fontSize=20;strokeColor=#000000;" vertex="1" parent="1">
                    <mxGeometry x="1365" y="10" width="40" height="100" as="geometry"/>
                </mxCell>
                <mxCell id="137" value="&lt;font style=&quot;font-size: 30px&quot;&gt;&lt;b&gt;...&lt;/b&gt;&lt;/font&gt;" style="text;html=1;strokeColor=none;fillColor=none;align=center;verticalAlign=middle;whiteSpace=wrap;rounded=0;" vertex="1" parent="1">
                    <mxGeometry x="1405" y="60" width="40" height="20" as="geometry"/>
                </mxCell>
                <mxCell id="138" value="Process A" style="text;html=1;strokeColor=none;fillColor=none;align=center;verticalAlign=middle;whiteSpace=wrap;rounded=0;fontSize=20;" vertex="1" parent="1">
                    <mxGeometry x="1137.5" y="-40" width="255" height="20" as="geometry"/>
                </mxCell>
                <mxCell id="139" value="" style="shape=curlyBracket;whiteSpace=wrap;html=1;rounded=1;fontSize=20;strokeColor=#000000;rotation=90;" vertex="1" parent="1">
                    <mxGeometry x="1272.5" y="-172.5" width="20" height="325" as="geometry"/>
                </mxCell>
                <mxCell id="145" value="Shadow Page Table" style="rounded=1;whiteSpace=wrap;html=1;fontSize=28;fontColor=#ffffff;gradientDirection=north;fillColor=#6A00FF;gradientColor=#1BA1E2;strokeColor=#000000;" vertex="1" parent="1">
                    <mxGeometry x="1460" y="220" width="160" height="115" as="geometry"/>
                </mxCell>
                <mxCell id="146" value="&lt;font style=&quot;font-size: 30px&quot;&gt;&lt;b&gt;...&lt;/b&gt;&lt;/font&gt;" style="text;html=1;strokeColor=none;fillColor=none;align=center;verticalAlign=middle;whiteSpace=wrap;rounded=0;" vertex="1" parent="1">
                    <mxGeometry x="1305" y="460" width="40" height="20" as="geometry"/>
                </mxCell>
                <mxCell id="162" style="edgeStyle=none;html=1;exitX=0.5;exitY=1;exitDx=0;exitDy=0;entryX=0.5;entryY=0;entryDx=0;entryDy=0;fontSize=28;endArrow=open;endFill=0;endSize=16;strokeColor=#000000;" edge="1" parent="1" source="147" target="121">
                    <mxGeometry relative="1" as="geometry"/>
                </mxCell>
                <mxCell id="147" value="0" style="rounded=0;whiteSpace=wrap;html=1;fontSize=20;fillColor=#a20025;fontColor=#ffffff;strokeColor=#000000;" vertex="1" parent="1">
                    <mxGeometry x="960" y="220" width="40" height="100" as="geometry"/>
                </mxCell>
                <mxCell id="148" value="1" style="rounded=0;whiteSpace=wrap;html=1;fontSize=20;strokeColor=#000000;" vertex="1" parent="1">
                    <mxGeometry x="1000" y="220" width="40" height="100" as="geometry"/>
                </mxCell>
                <mxCell id="163" style="edgeStyle=none;html=1;exitX=0.5;exitY=1;exitDx=0;exitDy=0;entryX=0.5;entryY=0;entryDx=0;entryDy=0;fontSize=28;endArrow=open;endFill=0;endSize=16;strokeColor=#000000;" edge="1" parent="1" source="149" target="124">
                    <mxGeometry relative="1" as="geometry"/>
                </mxCell>
                <mxCell id="149" value="2" style="rounded=0;whiteSpace=wrap;html=1;fontSize=20;fillColor=#a20025;fontColor=#ffffff;strokeColor=#000000;" vertex="1" parent="1">
                    <mxGeometry x="1040" y="220" width="40" height="100" as="geometry"/>
                </mxCell>
                <mxCell id="164" style="edgeStyle=none;html=1;exitX=0.5;exitY=1;exitDx=0;exitDy=0;entryX=0.5;entryY=0;entryDx=0;entryDy=0;fontSize=28;endArrow=open;endFill=0;endSize=16;strokeColor=#000000;" edge="1" parent="1" source="150" target="125">
                    <mxGeometry relative="1" as="geometry"/>
                </mxCell>
                <mxCell id="150" value="3" style="rounded=0;whiteSpace=wrap;html=1;fontSize=20;fillColor=#a20025;fontColor=#ffffff;strokeColor=#000000;" vertex="1" parent="1">
                    <mxGeometry x="1080" y="220" width="40" height="100" as="geometry"/>
                </mxCell>
                <mxCell id="151" value="4" style="rounded=0;whiteSpace=wrap;html=1;fontSize=20;strokeColor=#000000;" vertex="1" parent="1">
                    <mxGeometry x="1120" y="220" width="40" height="100" as="geometry"/>
                </mxCell>
                <mxCell id="152" value="5" style="rounded=0;whiteSpace=wrap;html=1;fontSize=20;strokeColor=#000000;" vertex="1" parent="1">
                    <mxGeometry x="1160" y="220" width="40" height="100" as="geometry"/>
                </mxCell>
                <mxCell id="153" value="6" style="rounded=0;whiteSpace=wrap;html=1;fontSize=20;strokeColor=#000000;" vertex="1" parent="1">
                    <mxGeometry x="1200" y="220" width="40" height="100" as="geometry"/>
                </mxCell>
            </root>
        </mxGraphModel>
    </diagram>
</mxfile>